<svg xmlns="http://www.w3.org/2000/svg" viewBox="0 0 368 368" xmlns:v="https://vecta.io/nano"><path d="M232,56v48h96v240c0,8.8-7.2,16-16,16H56c-8.8,0-16-7.2-16-16V24c0-8.8,7.2-16,16-16h176V56z" fill="#cce4ff"/><path d="M32 24v320c0 13.232 10.768 24 24 24h256c13.232 0 24-10.768 24-24V88a7.98 7.98 0 0 0-2.344-5.656l-80-80C252.16.84 250.128 0 248 0H56C42.768 0 32 10.768 32 24zm208-8h4.688L320 91.312V96h-80V16zm-16 32H88c-4.416 0-8 3.584-8 8v48c0 4.416 3.584 8 8 8s8-3.584 8-8V64h128v40a8 8 0 0 0 8 8h88v232a8.01 8.01 0 0 1-8 8H56c-4.408 0-8-3.592-8-8V24c0-4.408 3.592-8 8-8h168v32zm-45.656 253.656c.736.736 1.624 1.32 2.6 1.728A8.08 8.08 0 0 0 184 304a8.08 8.08 0 0 0 3.056-.616c.976-.408 1.864-.992 2.6-1.728l48-48c3.128-3.128 3.128-8.184 0-11.312s-8.184-3.128-11.312 0L192 276.688V136c0-4.416-3.584-8-8-8s-8 3.584-8 8v140.688l-34.344-34.344c-3.128-3.128-8.184-3.128-11.312 0s-3.128 8.184 0 11.312l48 48z" fill="#007aff"/></svg>